<svg width="176" height="162" viewBox="0 0 176 162" fill="none" xmlns="http://www.w3.org/2000/svg">
<g clip-path="url(#clip0_1002_10111)">
<path d="M0 0H176.12V162.111H0V0Z" fill="white"/>
<path d="M118.504 115.528L119.929 115.522C119.986 117.631 119.952 119.748 119.954 121.858C119.956 124.356 119.986 126.86 119.894 129.356L117.596 129.348L116.188 129.346L116.196 115.547C116.963 115.521 117.736 115.532 118.504 115.528Z" fill="#FF5A00"/>
<path d="M73.7016 115.554L78.0411 115.506C76.7522 117.806 75.2746 120.02 73.846 122.248L72.8456 123.86L72.8889 129.388L68.8571 129.417L68.8629 123.875C68.2584 122.826 67.5429 121.814 66.8819 120.794C65.7503 119.07 64.6543 117.327 63.5938 115.565L65.3531 115.528L68.0016 115.509C68.9011 117.161 69.9024 118.776 70.8874 120.387C71.712 118.739 72.742 117.141 73.7016 115.554Z" fill="#FF5A00"/>
<path d="M57.4733 115.442C59.4201 115.324 61.3022 115.693 63.1145 116.32C62.7353 117.358 62.3142 118.377 61.883 119.397C61.3256 119.201 60.7479 118.995 60.1717 118.853C59.1955 118.612 57.4981 118.334 56.611 118.853C56.277 119.048 56.0922 119.299 56.0097 119.65C56.0652 119.962 56.2047 120.12 56.4828 120.289C56.9797 120.592 57.5858 120.734 58.1493 120.891C59.7825 121.346 61.6696 121.757 62.9391 122.87C63.6429 123.487 64.0132 124.254 64.0252 125.149C64.0397 126.225 63.587 127.376 62.7511 128.144C61.4407 129.346 59.5398 129.585 57.7762 129.585C55.6846 129.586 53.9296 129.072 52.1091 128.182C52.5084 127.216 53.0065 126.304 53.5235 125.388C54.5514 125.908 55.6292 126.243 56.7972 126.372C57.5557 126.456 58.8887 126.567 59.503 126.092C59.7459 125.904 59.9077 125.686 59.9351 125.391C59.6086 124.342 54.928 123.772 53.4458 122.72C52.6952 122.187 52.2207 121.43 52.123 120.56C51.9856 119.335 52.1889 117.969 53.0929 117.017C54.1747 115.877 55.9079 115.534 57.4733 115.442Z" fill="#FF5A00"/>
<path d="M24.9476 115.556L35.9709 115.578C35.9773 116.579 35.9752 117.579 35.9648 118.579L28.6424 118.554L28.6386 120.88L35.1557 120.846C35.156 121.856 35.1508 122.867 35.1399 123.877L28.7411 123.876C28.4807 124.134 28.6329 125.801 28.6362 126.22C31.1548 126.139 33.6898 126.185 36.2098 126.203L36.2025 129.419L24.953 129.42C24.9238 124.798 24.922 120.177 24.9476 115.556Z" fill="#FF5A00"/>
<path d="M42.1102 115.517L46.5848 115.496C47.0041 116.794 47.5312 118.072 48.0013 119.356L51.7141 129.338L47.6676 129.354C47.491 128.727 47.3403 127.839 46.9566 127.301C46.8716 127.182 46.7748 127.212 46.6322 127.194C45.0261 127.19 43.4202 127.168 41.8146 127.128L41.0298 129.398C39.7118 129.405 38.394 129.4 37.0762 129.385C37.5 128.068 38.0457 126.767 38.4984 125.456C39.644 122.136 40.7721 118.774 42.1102 115.517Z" fill="#FF5A00"/>
<path d="M44.3842 119.02C44.6863 119.732 44.836 120.552 45.0496 121.293C45.3272 122.256 45.671 123.189 46.043 124.124L44.4265 124.117L42.6641 124.121C43.255 122.43 43.7086 120.683 44.3842 119.02Z" fill="white"/>
<path d="M92.1816 115.526C92.3307 115.518 92.3949 115.527 92.5344 115.561C92.9088 115.942 96.9833 127.837 97.5405 129.358L93.546 129.396L92.8149 127.13L88.2966 127.136C88.0959 127.132 87.9308 127.135 87.7327 127.173C87.2415 127.588 87.0645 128.801 86.8363 129.393C85.5516 129.393 84.267 129.382 82.9824 129.361C83.4174 127.566 84.1865 125.796 84.836 124.057L88.0192 115.54C89.4067 115.552 90.7942 115.548 92.1816 115.526Z" fill="#FF5A00"/>
<path d="M90.2117 119.177C90.5998 119.656 91.6883 123.39 91.8985 124.18L90.2752 124.169L88.7168 124.184C89.1612 122.504 89.6959 120.839 90.2117 119.177Z" fill="white"/>
<path d="M146.343 115.527C146.408 115.521 146.472 115.549 146.536 115.565C147.107 116.595 147.48 118.155 147.875 119.301C149.031 122.65 150.149 126.01 151.229 129.381C149.974 129.392 148.717 129.373 147.462 129.369C147.21 128.648 146.972 127.923 146.745 127.194L141.957 127.197L141.557 127.217C141.103 127.584 140.9 128.851 140.715 129.415L136.996 129.402C138.31 124.761 139.898 120.094 141.582 115.557C143.169 115.557 144.756 115.547 146.343 115.527Z" fill="#FF5A00"/>
<path d="M144.076 118.478C144.117 118.528 145.701 123.591 145.957 124.28L144.331 124.258L142.293 124.266C143.001 122.379 143.493 120.401 144.076 118.478Z" fill="white"/>
<path d="M123.029 115.523C124.196 115.538 125.363 115.532 126.529 115.504C128.547 118.123 130.463 120.804 132.277 123.547C132.211 120.877 132.186 118.207 132.203 115.537C133.467 115.484 134.747 115.515 136.013 115.508C135.892 120.124 135.997 124.775 135.989 129.395C134.706 129.443 133.405 129.409 132.119 129.416C130.199 126.821 128.41 124.148 126.448 121.577C126.657 123.965 126.501 126.95 126.501 129.403L122.772 129.401L122.751 119.672C122.751 118.55 122.591 116.57 122.815 115.572L123.029 115.523Z" fill="#FF5A00"/>
<path d="M112.14 115.528L113.52 115.52L113.491 129.356C112.26 129.38 111.029 129.393 109.798 129.392L109.823 121.546C108.961 122.664 107.357 125.743 106.629 126.442C106.435 126.628 106.285 126.669 106.012 126.673C105.791 126.575 105.648 126.478 105.496 126.298C105.046 125.767 104.689 125.102 104.315 124.521C103.628 123.452 102.915 122.391 102.29 121.289L102.338 123.798L102.343 129.361L98.5762 129.352C98.423 124.763 98.553 120.148 98.5611 115.557C99.8591 115.559 101.157 115.568 102.455 115.583C103.182 116.69 103.9 117.802 104.608 118.92C105.085 119.666 105.54 120.453 106.124 121.133C107.392 119.329 108.56 117.432 109.695 115.553L112.14 115.528Z" fill="#FF5A00"/>
<path d="M140.342 30.3721C140.432 30.4143 140.385 30.3803 140.449 30.5033C139.197 32.7005 137.761 34.8254 136.378 36.9537L130.594 45.8552L117.271 66.4922C122.721 64.8342 128.243 63.3749 133.706 61.7536C132.658 63.7 131.428 65.5849 130.228 67.456C128.361 70.3681 126.451 73.2589 124.614 76.187L116.831 88.5767C115.322 90.9609 113.861 93.4021 112.198 95.6988C112.226 92.1872 112.473 88.679 112.544 85.167L112.704 78.8898C112.736 77.4764 112.706 76.0542 112.854 74.646C111.923 75.897 111.137 77.2936 110.304 78.6049L105.442 86.2868C101.598 92.37 97.7079 98.4277 93.7706 104.46C92.6902 106.144 91.6194 107.833 90.5583 109.528C89.7861 110.754 89.0362 112.021 88.1363 113.172C87.1187 111.907 86.3046 110.437 85.4318 109.078L80.4438 101.293L71.8979 88.0255C69.3205 83.9032 66.7081 79.7997 64.0607 75.7152C64.0801 82.2891 64.2015 88.8878 63.9774 95.458C62.4218 93.2445 60.9555 90.9652 59.4609 88.7154C56.1746 83.7913 52.9403 78.8385 49.758 73.857C47.1611 69.8259 44.3789 65.898 41.955 61.7731C43.7692 62.3408 45.6527 62.7776 47.4945 63.2647L58.6637 66.2167C57.1457 63.5848 55.2631 61.0854 53.6103 58.5182L41.0307 39.0624C39.1827 36.2454 37.2796 33.4199 35.5762 30.5269C38.0443 31.1609 40.4829 31.9191 42.9288 32.6234C46.8807 33.7367 50.8254 34.8707 54.7631 36.0257C60.1195 37.5844 65.5314 39.0086 70.8583 40.6476C76.4309 49.0416 82.0826 57.3904 87.8133 65.694L87.851 78.8998C87.8551 81.2485 87.9344 83.6232 87.8094 85.9692C86.7038 84.4073 85.758 82.6955 84.7428 81.0785L78.1217 70.5274L70.508 58.5372C69.4636 56.8843 68.3273 55.2632 67.3581 53.5727C66.7561 53.6721 66.1667 53.8045 65.5735 53.941C66.4108 55.0494 67.1235 56.2859 67.8737 57.4487C69.6179 60.1576 71.3347 62.881 73.0244 65.6191L88.0135 89.3941C89.5976 87.119 90.994 84.698 92.465 82.3573C96.2246 76.3759 99.8865 70.317 103.862 64.4553L88.1387 64.4726L88.1293 57.5132C94.724 57.5594 101.319 57.558 107.914 57.5093C109.199 55.6373 110.372 53.6698 111.58 51.7517C112.192 50.779 112.77 49.7677 113.502 48.866C105.042 48.898 96.5819 48.8885 88.1217 48.8375C88.0395 46.753 88.0725 44.6562 88.0622 42.5698L118.343 35.4553C122.717 34.4161 127.098 33.4008 131.484 32.4094C134.432 31.725 137.376 30.9844 140.342 30.3721Z" fill="#FF5A00"/>
</g>
<defs>
<clipPath id="clip0_1002_10111">
<rect width="176" height="162" fill="white"/>
</clipPath>
</defs>
</svg>
